<svg xmlns="http://www.w3.org/2000/svg" viewBox="0 0 500 500"><g id="freepik--Wallet--inject-36"><polygon points="364.24 119.81 372.53 124.59 372.53 138.96 364.24 134.17 364.24 119.81" style="fill:#263238"></polygon><path d="M357.88,85.17l-26.82,15.48v-31A4.15,4.15,0,0,0,324.71,66L192.06,142.61c-5.13,3-7.7,6.83-7.7,10.71V282.6c0,3.88,2.57,7.76,7.7,10.72l.18.11c10.26,5.92,26.88,5.92,37.14,0L362,216.85a4.94,4.94,0,0,0,2.21-3.83V86.29l-2.08-1.2A4.75,4.75,0,0,0,357.88,85.17Z" style="fill:#FFC100"></path><path d="M192.06,164c-10.22-5.89-10.22-15.54,0-21.43L324.71,66a4.72,4.72,0,0,1,4.28-.08c1.14.66,1.08,1.77-.14,2.47L199.91,142.86c-1.22.71-3.22,1.83-4.35,2.68-6,4.49-6.52,10.48-1.37,14.72a20.77,20.77,0,0,0,4.39,2.57c7.4,3.09,18,2.78,25.87-.77,1.29-.58,3.26-1.74,4.48-2.44l129-74.45a4.75,4.75,0,0,1,4.28-.08c1.15.66,1.09,1.77-.13,2.48L229.38,164.15c-10.22,5.9-26.92,5.9-37.14,0Z" style="fill:#FFC100"></path><path d="M192.06,164c-10.22-5.89-10.22-15.54,0-21.43L324.71,66a4.72,4.72,0,0,1,4.28-.08c1.14.66,1.08,1.77-.14,2.47L199.91,142.86c-1.22.71-3.22,1.83-4.35,2.68-6,4.49-6.52,10.48-1.37,14.72a20.77,20.77,0,0,0,4.39,2.57c7.4,3.09,18,2.78,25.87-.77,1.29-.58,3.26-1.74,4.48-2.44l129-74.45a4.75,4.75,0,0,1,4.28-.08c1.15.66,1.09,1.77-.13,2.48L229.38,164.15c-10.22,5.9-26.92,5.9-37.14,0Z" style="opacity:0.30000000000000004"></path><path d="M188.73,171.76a.52.52,0,0,1-.33-.12,16.48,16.48,0,0,1-1.81-1.84.5.5,0,0,1,.77-.64,15.28,15.28,0,0,0,1.7,1.72.51.51,0,0,1,.05.71A.52.52,0,0,1,188.73,171.76Z" style="fill:#f5f5f5"></path><path d="M212.42,178.62a.5.5,0,0,1-.5-.48.5.5,0,0,1,.49-.52,45,45,0,0,0,5-.45.5.5,0,0,1,.57.42.51.51,0,0,1-.42.57,47.22,47.22,0,0,1-5.08.46Zm-5-.1h0a43.24,43.24,0,0,1-5-.68.49.49,0,0,1-.4-.58.51.51,0,0,1,.59-.4,41.21,41.21,0,0,0,4.93.66.5.5,0,0,1,0,1Zm15-1.41a.5.5,0,0,1-.48-.37.49.49,0,0,1,.34-.61,32.78,32.78,0,0,0,4.66-1.7.49.49,0,0,1,.66.24.5.5,0,0,1-.24.67,33.66,33.66,0,0,1-4.81,1.75Zm-24.85-.54a.45.45,0,0,1-.16,0,30.38,30.38,0,0,1-4.7-2,.5.5,0,0,1,.47-.88,30.42,30.42,0,0,0,4.55,2,.5.5,0,0,1-.16,1Zm34-3.6a.5.5,0,0,1-.25-.93l4.37-2.52a.5.5,0,1,1,.5.86l-4.37,2.52A.45.45,0,0,1,231.52,173Zm8.74-5a.51.51,0,0,1-.44-.25A.5.5,0,0,1,240,167l4.36-2.53a.5.5,0,0,1,.68.19.49.49,0,0,1-.18.68l-4.36,2.52A.47.47,0,0,1,240.26,167.93Zm8.73-5a.5.5,0,0,1-.43-.25.51.51,0,0,1,.18-.69l4.36-2.52a.52.52,0,0,1,.69.19.5.5,0,0,1-.19.68l-4.36,2.52A.47.47,0,0,1,249,162.89Zm8.73-5a.5.5,0,0,1-.43-.25.51.51,0,0,1,.18-.69l4.37-2.52a.49.49,0,0,1,.68.19.5.5,0,0,1-.18.68L258,157.78A.55.55,0,0,1,257.72,157.85Zm8.73-5a.48.48,0,0,1-.43-.25.5.5,0,0,1,.18-.68l4.37-2.52a.49.49,0,0,1,.68.18.51.51,0,0,1-.18.69l-4.37,2.52A.54.54,0,0,1,266.45,152.8Zm8.73-5a.5.5,0,0,1-.25-.93l4.37-2.52a.49.49,0,0,1,.68.18.51.51,0,0,1-.18.69l-4.37,2.52A.54.54,0,0,1,275.18,147.76Zm8.74-5a.5.5,0,0,1-.25-.93l4.36-2.52a.5.5,0,0,1,.5.86l-4.36,2.53A.57.57,0,0,1,283.92,142.72Zm8.73-5a.52.52,0,0,1-.44-.25.51.51,0,0,1,.19-.68l4.36-2.52a.5.5,0,1,1,.5.86l-4.36,2.52A.47.47,0,0,1,292.65,137.68Zm8.73-5a.5.5,0,0,1-.25-.93l4.36-2.52a.51.51,0,0,1,.69.18.5.5,0,0,1-.19.68l-4.36,2.52A.47.47,0,0,1,301.38,132.64Zm8.73-5a.5.5,0,0,1-.25-.93l4.37-2.53a.51.51,0,0,1,.68.19.49.49,0,0,1-.18.68l-4.37,2.52A.45.45,0,0,1,310.11,127.6Zm8.73-5a.5.5,0,0,1-.43-.25.51.51,0,0,1,.18-.69L323,119.1a.51.51,0,0,1,.68.19.49.49,0,0,1-.18.68l-4.37,2.52A.45.45,0,0,1,318.84,122.56Zm8.73-5a.5.5,0,0,1-.43-.25.51.51,0,0,1,.18-.69l4.37-2.52a.49.49,0,0,1,.68.18.51.51,0,0,1-.18.69l-4.37,2.52A.55.55,0,0,1,327.57,117.52Zm8.74-5a.51.51,0,0,1-.44-.25.5.5,0,0,1,.19-.68l4.36-2.52a.49.49,0,0,1,.68.18.51.51,0,0,1-.18.69l-4.36,2.52A.57.57,0,0,1,336.31,112.47Zm8.73-5a.52.52,0,0,1-.44-.25.51.51,0,0,1,.19-.68l4.36-2.52a.5.5,0,1,1,.5.87l-4.36,2.52A.57.57,0,0,1,345,107.43Z" style="fill:#f5f5f5"></path><path d="M355.94,103.64a.51.51,0,0,1-.5-.5V101.5l-1.41.82a.49.49,0,0,1-.68-.18.51.51,0,0,1,.18-.69l2.16-1.25a.5.5,0,0,1,.75.44v2.5A.5.5,0,0,1,355.94,103.64Z" style="fill:#f5f5f5"></path><path d="M355.94,203.78a.51.51,0,0,1-.5-.5v-5a.5.5,0,0,1,.5-.5.5.5,0,0,1,.5.5v5A.5.5,0,0,1,355.94,203.78Zm0-10a.5.5,0,0,1-.5-.5v-5a.51.51,0,0,1,.5-.5.5.5,0,0,1,.5.5v5A.5.5,0,0,1,355.94,193.76Zm0-10a.51.51,0,0,1-.5-.5v-5a.5.5,0,0,1,.5-.5.5.5,0,0,1,.5.5v5A.5.5,0,0,1,355.94,183.75Zm0-10a.5.5,0,0,1-.5-.5v-5a.5.5,0,0,1,.5-.5.5.5,0,0,1,.5.5v5A.5.5,0,0,1,355.94,173.73Zm0-10a.5.5,0,0,1-.5-.5v-5a.51.51,0,0,1,.5-.5.5.5,0,0,1,.5.5v5A.5.5,0,0,1,355.94,163.72Zm0-10a.51.51,0,0,1-.5-.5v-5a.5.5,0,0,1,.5-.5.5.5,0,0,1,.5.5v5A.5.5,0,0,1,355.94,153.71Zm0-10a.5.5,0,0,1-.5-.5v-5a.5.5,0,0,1,.5-.5.5.5,0,0,1,.5.5v5A.5.5,0,0,1,355.94,143.69Zm0-10a.51.51,0,0,1-.5-.5v-5a.5.5,0,0,1,.5-.5.5.5,0,0,1,.5.5v5A.5.5,0,0,1,355.94,133.68Zm0-10a.5.5,0,0,1-.5-.5v-5a.5.5,0,0,1,.5-.5.5.5,0,0,1,.5.5v5A.5.5,0,0,1,355.94,123.66Zm0-10a.5.5,0,0,1-.5-.5v-5a.51.51,0,0,1,.5-.5.5.5,0,0,1,.5.5v5A.5.5,0,0,1,355.94,113.65Z" style="fill:#f5f5f5"></path><path d="M353.78,212.53a.5.5,0,0,1-.25-.93l1.91-1.11v-2.21a.51.51,0,0,1,.5-.5.5.5,0,0,1,.5.5v2.5a.5.5,0,0,1-.25.44L354,212.47A.57.57,0,0,1,353.78,212.53Z" style="fill:#f5f5f5"></path><path d="M212.44,288.77a.5.5,0,0,1,0-1,42.71,42.71,0,0,0,5-.46.51.51,0,0,1,.57.42.5.5,0,0,1-.42.57,44.8,44.8,0,0,1-5.08.47Zm-5-.1h0a43.83,43.83,0,0,1-5.05-.68.5.5,0,0,1-.4-.58.51.51,0,0,1,.59-.4,41.77,41.77,0,0,0,4.93.66.5.5,0,0,1,0,1Zm15-1.42a.49.49,0,0,1-.48-.36.5.5,0,0,1,.34-.62,32.34,32.34,0,0,0,4.66-1.7.49.49,0,0,1,.66.25.49.49,0,0,1-.24.66,33.52,33.52,0,0,1-4.8,1.75A.36.36,0,0,1,222.38,287.25Zm-24.85-.53a.45.45,0,0,1-.16,0,30.92,30.92,0,0,1-4.7-2,.5.5,0,0,1,.47-.88,31.47,31.47,0,0,0,4.55,2,.5.5,0,0,1-.16,1Zm34-3.61a.5.5,0,0,1-.25-.93l4.37-2.52a.5.5,0,0,1,.5.86L231.78,283A.45.45,0,0,1,231.53,283.11Zm8.74-5a.5.5,0,0,1-.44-.25.49.49,0,0,1,.19-.68l4.36-2.52a.5.5,0,1,1,.5.86L240.52,278A.47.47,0,0,1,240.27,278.07Zm8.73-5a.51.51,0,0,1-.44-.25.5.5,0,0,1,.19-.68l4.36-2.53a.52.52,0,0,1,.69.19.51.51,0,0,1-.19.68L249.25,273A.47.47,0,0,1,249,273Zm8.73-5a.5.5,0,0,1-.43-.25.51.51,0,0,1,.18-.69l4.36-2.52a.51.51,0,0,1,.69.19.5.5,0,0,1-.19.68L258,267.92A.47.47,0,0,1,257.73,268Zm8.73-5a.5.5,0,0,1-.43-.25.51.51,0,0,1,.18-.69l4.37-2.52a.5.5,0,0,1,.5.87l-4.37,2.52A.55.55,0,0,1,266.46,263Zm8.73-5.05a.48.48,0,0,1-.43-.25.5.5,0,0,1,.18-.68l4.37-2.52a.5.5,0,0,1,.5.87l-4.37,2.52A.54.54,0,0,1,275.19,257.9Zm8.73-5a.5.5,0,0,1-.43-.25.5.5,0,0,1,.18-.68l4.37-2.52a.5.5,0,1,1,.5.86l-4.37,2.53A.51.51,0,0,1,283.92,252.86Zm8.74-5a.5.5,0,0,1-.25-.93l4.36-2.52a.5.5,0,1,1,.5.86l-4.36,2.52A.47.47,0,0,1,292.66,247.82Zm8.73-5a.5.5,0,0,1-.25-.93l4.36-2.52a.5.5,0,1,1,.5.86l-4.36,2.52A.47.47,0,0,1,301.39,242.78Zm8.73-5a.5.5,0,0,1-.25-.93l4.37-2.52a.5.5,0,1,1,.5.86l-4.37,2.52A.47.47,0,0,1,310.12,237.74Zm8.73-5a.5.5,0,0,1-.43-.25.51.51,0,0,1,.18-.69l4.37-2.52a.51.51,0,0,1,.68.19.49.49,0,0,1-.18.68l-4.37,2.52A.45.45,0,0,1,318.85,232.7Zm8.73-5a.5.5,0,0,1-.43-.25.51.51,0,0,1,.18-.69l4.37-2.52a.5.5,0,0,1,.5.87l-4.37,2.52A.45.45,0,0,1,327.58,227.66Zm8.73-5a.5.5,0,0,1-.43-.25.51.51,0,0,1,.18-.69l4.37-2.52a.49.49,0,0,1,.68.18.51.51,0,0,1-.18.69l-4.37,2.52A.52.52,0,0,1,336.31,222.62Zm8.74-5.05a.51.51,0,0,1-.44-.25.51.51,0,0,1,.19-.68l4.36-2.52a.51.51,0,0,1,.69.18.52.52,0,0,1-.19.69l-4.36,2.52A.57.57,0,0,1,345.05,217.57Z" style="fill:#f5f5f5"></path><path d="M188.73,281.9a.52.52,0,0,1-.33-.12,16.41,16.41,0,0,1-1.81-1.83.52.52,0,0,1,.06-.71.51.51,0,0,1,.71.07,15.28,15.28,0,0,0,1.7,1.72.49.49,0,0,1,.05.7A.48.48,0,0,1,188.73,281.9Z" style="fill:#f5f5f5"></path><path d="M331.06,93.83V78.76a3.92,3.92,0,0,0-1.77-3.07,1.08,1.08,0,0,1,0,2L191.62,157.22a10.44,10.44,0,0,0,2.58,3,21,21,0,0,0,4.38,2.57,31.3,31.3,0,0,0,12.86,2.1l117.86-68A3.92,3.92,0,0,0,331.06,93.83Z" style="fill:#e0e0e0"></path><path d="M329.29,75.69l-.61-.35a3.92,3.92,0,0,0-3.53,0L190.71,153a7.34,7.34,0,0,0,.91,4.26L329.29,77.74A1.08,1.08,0,0,0,329.29,75.69Z" style="fill:#ebebeb"></path><path d="M339.36,83.54a3.94,3.94,0,0,0-1.77-3.06l-.61-.35a3.94,3.94,0,0,0-3.54,0l-139,80.28a21.64,21.64,0,0,0,4.19,2.42c7.41,3.09,18,2.78,25.87-.78,1.29-.58,3.26-1.72,4.48-2.42L339.36,95.87Z" style="fill:#e0e0e0"></path><path d="M198.53,162.81,337.59,82.52a1.08,1.08,0,0,0,0-2l-.61-.35a3.94,3.94,0,0,0-3.54,0l-139,80.28A21.91,21.91,0,0,0,198.53,162.81Z" style="fill:#ebebeb"></path><path d="M347.65,88.33a3.89,3.89,0,0,0-1.77-3.06l-.61-.36a3.94,3.94,0,0,0-3.54,0L204.06,164.4a36,36,0,0,0,20.39-2.35c1.29-.58,3.26-1.72,4.48-2.42L347.65,91.08Z" style="fill:#e0e0e0"></path><path d="M345.88,85.27l-.61-.36a3.94,3.94,0,0,0-3.54,0L204.06,164.4a35.18,35.18,0,0,0,7.38.53L345.88,87.31A1.08,1.08,0,0,0,345.88,85.27Z" style="fill:#ebebeb"></path><path d="M380.82,131.43v29.43a3.92,3.92,0,0,1-1.76,3.06l-53.7,31-.1,0c-4.06,2.31-7.74,2.61-10.43,1.22-.82-.42-4-2.25-4.74-2.75-2.43-1.57-3.91-4.67-3.91-9,0-9,6.31-19.93,14.24-25h0l50.33-29.05.26-.18c.71-.57.62-1.35-.26-1.86l-6.52-3.77v-4.79l14.82,8.56a3.92,3.92,0,0,1,1.73,2.71A2.07,2.07,0,0,1,380.82,131.43Z" style="fill:#FFC100"></path><path d="M380.82,131.43v29.43a3.92,3.92,0,0,1-1.76,3.06l-53.7,31-.1,0c-4.06,2.31-7.74,2.61-10.43,1.22-.82-.42-4-2.25-4.74-2.75-2.43-1.57-3.91-4.67-3.91-9,0-9,6.31-19.93,14.24-25h0l50.33-29.05.26-.18c.71-.57.62-1.35-.26-1.86l-6.52-3.77v-4.79l14.82,8.56a3.92,3.92,0,0,1,1.73,2.71A2.07,2.07,0,0,1,380.82,131.43Z" style="opacity:0.30000000000000004"></path><path d="M380.82,131.43v29.43a3.92,3.92,0,0,1-1.76,3.06l-53.7,31-.1,0c-5.29,3-9.94,2.61-12.6-.5a11.61,11.61,0,0,1-2.33-7.64c0-9.26,6.73-20.64,15-25.44l51.32-29.62,2.38-1.37c.87-.51,1.59-.21,1.73.67A2.07,2.07,0,0,1,380.82,131.43Z" style="fill:#FFC100"></path><path d="M322.77,179.66c0,4,2.78,5.57,6.22,3.59a13.73,13.73,0,0,0,6.22-10.77c0-4-2.79-5.58-6.22-3.59A13.72,13.72,0,0,0,322.77,179.66Z" style="fill:#37474f"></path><polygon points="335.43 169.63 333.58 168.57 324.59 183.68 326.7 184.9 335.43 169.63" style="fill:#37474f"></polygon><path d="M324.84,180.86c0,4,2.79,5.57,6.22,3.59a13.75,13.75,0,0,0,6.22-10.78c0-4-2.78-5.57-6.22-3.59A13.78,13.78,0,0,0,324.84,180.86Z" style="fill:#455a64"></path></g></svg>